<svg width="116" height="58" viewBox="0 0 116 58" fill="none" xmlns="http://www.w3.org/2000/svg">
<path d="M113.031 58C114.633 58 115.939 56.7008 115.859 55.1012C115.527 48.4749 114.061 41.9471 111.516 35.8044C108.601 28.7675 104.329 22.3736 98.9433 16.9878C93.5575 11.602 87.1637 7.32976 80.1268 4.41499C73.0899 1.50021 65.5478 -3.32935e-07 57.9311 0C50.3145 3.32935e-07 42.7724 1.50022 35.7355 4.41499C28.6986 7.32976 22.3048 11.602 16.919 16.9878C11.5332 22.3736 7.26091 28.7675 4.34614 35.8044C1.80172 41.9471 0.335222 48.4749 0.00363559 55.1012C-0.0764114 56.7008 1.22953 58 2.83115 58C4.43278 58 5.72276 56.7006 5.81169 55.1014C6.13781 49.2372 7.45174 43.4629 9.70464 38.0239C12.3279 31.6907 16.173 25.9362 21.0202 21.089C25.8674 16.2418 31.6219 12.3968 37.9551 9.77349C44.2883 7.1502 51.0761 5.8 57.9311 5.8C64.7861 5.8 71.574 7.1502 77.9072 9.77349C84.2404 12.3968 89.9949 16.2418 94.8421 21.089C99.6893 25.9362 103.534 31.6907 106.158 38.0239C108.411 43.4629 109.724 49.2372 110.051 55.1014C110.14 56.7006 111.43 58 113.031 58Z" fill="#E6E6E6"/>
</svg>
