<svg width="100" height="24" viewBox="0 0 100 24" fill="none" xmlns="http://www.w3.org/2000/svg">
<path d="M37.3749 13.5112H37.3447L35.444 5.80664H33.1538L31.2135 13.4178H31.1821L29.4267 5.81131H26.9854L29.9301 16.9853H32.4074L34.2605 9.37996H34.2919L36.1775 16.9853H38.6084L41.5949 5.81131H39.1955L37.3749 13.5112ZM49.0572 9.59124C48.823 9.29163 48.5142 9.05929 48.162 8.91769C47.6971 8.74156 47.2021 8.6595 46.7054 8.67599C46.2602 8.68288 45.8226 8.79274 45.4266 8.99705C44.9748 9.22443 44.6002 9.58102 44.3501 10.022H44.3036V5.81131H42.0948V16.9853H44.3036V12.7443C44.3036 11.9201 44.4385 11.3278 44.7082 10.9675C44.9779 10.6072 45.4142 10.4274 46.0172 10.4282C46.5461 10.4282 46.9158 10.5928 47.1227 10.922C47.3297 11.2512 47.4343 11.7485 47.4343 12.4163V16.9853H49.6431V12.0088C49.6466 11.549 49.6021 11.0901 49.5106 10.6395C49.4387 10.2607 49.2839 9.90254 49.0572 9.59124ZM58.1715 15.184V10.9815C58.1715 10.4905 58.0626 10.0963 57.8448 9.79903C57.6263 9.49965 57.3375 9.25911 57.0043 9.09862C56.6449 8.92745 56.2608 8.81441 55.8662 8.76355C55.4583 8.70672 55.0469 8.67785 54.6351 8.67715C54.1873 8.67668 53.7406 8.72089 53.3016 8.80907C52.8818 8.88912 52.4786 9.03994 52.1089 9.25501C51.7585 9.46009 51.4601 9.74376 51.237 10.0839C50.9937 10.4742 50.8588 10.9228 50.8463 11.3831H53.0551C53.097 10.9454 53.2435 10.6314 53.4923 10.4492C53.7411 10.2671 54.0898 10.1644 54.527 10.1644C54.7117 10.1635 54.8963 10.1765 55.0792 10.2029C55.2387 10.2242 55.3926 10.2774 55.5313 10.3593C55.6628 10.439 55.7704 10.5527 55.8429 10.6886C55.9287 10.866 55.9686 11.0624 55.9592 11.2594C55.9706 11.3567 55.9581 11.4553 55.9228 11.5466C55.8875 11.638 55.8306 11.7193 55.7569 11.7835C55.5812 11.9176 55.3778 12.0105 55.1616 12.0555C54.8801 12.1243 54.5937 12.1715 54.3049 12.1968C53.9817 12.2287 53.6547 12.2703 53.3238 12.3217C52.9904 12.3744 52.6601 12.4454 52.3344 12.5341C52.0226 12.6149 51.7272 12.7496 51.4613 12.9322C51.2008 13.1174 50.987 13.3613 50.8371 13.6443C50.6645 13.9966 50.5817 14.3866 50.5965 14.779C50.5868 15.15 50.6587 15.5187 50.8069 15.8588C50.9386 16.1521 51.1378 16.4097 51.3881 16.6105C51.6468 16.8135 51.9432 16.9623 52.26 17.0483C52.6102 17.1451 52.9721 17.1927 53.3353 17.1896C53.8313 17.1896 54.3245 17.1161 54.799 16.9713C55.2734 16.8266 55.7028 16.5622 56.0464 16.2032C56.0562 16.3373 56.0744 16.4706 56.101 16.6024C56.1265 16.7321 56.1603 16.86 56.2022 16.9853H58.4459C58.3219 16.7531 58.2474 16.4974 58.2273 16.2347C58.1868 15.886 58.1682 15.5351 58.1715 15.184ZM55.9627 13.8533C55.9602 14.0209 55.9474 14.1881 55.9243 14.3541C55.8952 14.5721 55.8236 14.7824 55.7139 14.9727C55.5851 15.1904 55.4025 15.371 55.1838 15.4969C54.9459 15.6432 54.6083 15.7163 54.1712 15.7163C53.9988 15.7166 53.8268 15.7006 53.6574 15.6685C53.5029 15.6421 53.3549 15.5862 53.2214 15.5039C53.0961 15.4256 52.9938 15.3152 52.925 15.184C52.8479 15.0287 52.8104 14.8567 52.8157 14.6833C52.8094 14.5045 52.8469 14.3269 52.925 14.1661C52.995 14.0339 53.0935 13.9191 53.2133 13.8299C53.3411 13.7368 53.4833 13.6654 53.6341 13.6186C53.7948 13.5665 53.9587 13.5248 54.1247 13.4937C54.3014 13.4634 54.4735 13.4353 54.6536 13.4155C54.8338 13.3956 55.0024 13.3676 55.1605 13.3373C55.3136 13.3081 55.4646 13.2691 55.6128 13.2206C55.7412 13.1806 55.86 13.1142 55.9615 13.0256L55.9627 13.8533ZM62.3043 6.46737H60.0955V8.89431H58.7492V10.3815H60.0885V15.1549C60.074 15.495 60.1435 15.8335 60.2908 16.1401C60.4168 16.3832 60.6086 16.5855 60.8442 16.7238C61.0958 16.8655 61.372 16.9582 61.658 16.9969C61.9801 17.0448 62.3054 17.0682 62.631 17.067C62.8507 17.067 63.0727 17.067 63.3018 17.0518C63.5106 17.0439 63.7187 17.0228 63.9249 16.9888V15.2634C63.8167 15.2864 63.7073 15.3024 63.597 15.3113C63.4808 15.3218 63.3645 15.3276 63.239 15.3276C62.8658 15.3276 62.6158 15.2634 62.4903 15.1385C62.3647 15.0136 62.3043 14.7638 62.3043 14.3879V10.3815H63.9249V8.89431H62.3008L62.3043 6.46737ZM71.4499 13.4388C71.3048 13.185 71.1065 12.9659 70.8687 12.7968C70.619 12.6193 70.3449 12.4793 70.0549 12.3812C69.7491 12.2785 69.4341 12.1897 69.1121 12.1162C68.7901 12.0426 68.4948 11.975 68.1937 11.9131C67.9221 11.8582 67.6539 11.7876 67.3904 11.7018C67.1832 11.6381 66.9904 11.5342 66.8231 11.396C66.7523 11.3373 66.6958 11.2631 66.6579 11.1792C66.62 11.0952 66.6018 11.0037 66.6045 10.9115C66.5962 10.7689 66.6391 10.6281 66.7254 10.5146C66.8073 10.4139 66.9117 10.334 67.03 10.2811C67.1564 10.2278 67.29 10.1936 67.4264 10.1795C67.5617 10.1675 67.6975 10.1624 67.8333 10.1644C68.1898 10.1553 68.5432 10.233 68.8633 10.3909C69.1528 10.5415 69.3144 10.831 69.3446 11.2594H71.4488C71.4261 10.8188 71.2947 10.3907 71.0663 10.0138C70.862 9.69312 70.5877 9.42324 70.2642 9.22466C69.9257 9.01981 69.5538 8.87674 69.1656 8.8021C68.7481 8.71772 68.3231 8.67591 67.8972 8.67715C67.4683 8.67668 67.0403 8.71578 66.6184 8.7939C66.2241 8.86443 65.8447 9.00223 65.4967 9.20135C65.1665 9.39126 64.8903 9.66293 64.6944 9.99049C64.4777 10.3824 64.3727 10.8267 64.391 11.2746C64.3811 11.589 64.4567 11.9001 64.6096 12.1746C64.7549 12.4196 64.9536 12.6283 65.1909 12.7851C65.4428 12.9528 65.7166 13.0844 66.0047 13.1762C66.3104 13.2754 66.6255 13.3618 66.9463 13.4342C67.5734 13.5562 68.1908 13.724 68.7936 13.9362C69.2353 14.1019 69.4562 14.3521 69.4562 14.6867C69.4631 14.8619 69.4138 15.0346 69.3155 15.1794C69.2237 15.3082 69.1046 15.415 68.9668 15.4922C68.8212 15.5726 68.6644 15.6304 68.5017 15.6639C68.3407 15.7001 68.1762 15.7188 68.0112 15.7198C67.7988 15.7203 67.587 15.694 67.3811 15.6416C67.1887 15.5936 67.0063 15.5114 66.8428 15.3989C66.686 15.2879 66.5554 15.1436 66.4604 14.9763C66.358 14.7865 66.3071 14.5733 66.3127 14.3576H64.2015C64.2038 14.8333 64.33 15.3002 64.5678 15.7117C64.783 16.0635 65.0762 16.3607 65.4246 16.5802C65.7913 16.8058 66.1952 16.964 66.6173 17.0472C67.0676 17.1419 67.5266 17.1893 67.9867 17.1884C68.4395 17.1889 68.8913 17.1443 69.3353 17.0553C69.7531 16.9747 70.1521 16.8163 70.5118 16.5884C70.8826 16.3575 71.1851 16.0311 71.3877 15.6431C71.5903 15.2551 71.6857 14.8197 71.6638 14.3821C71.6742 14.0548 71.5993 13.7305 71.4465 13.4411L71.4499 13.4388ZM75.8431 5.80898L71.6371 16.9829H74.0982L74.9713 14.4953H79.1308L79.9712 16.9829H82.5124L78.3498 5.81131L75.8431 5.80898ZM75.6107 12.6637L77.0607 8.56396H77.0908L78.494 12.6637H75.6107ZM90.1537 9.99049C89.8499 9.59093 89.4613 9.26468 89.0157 9.0356C88.5084 8.78391 87.9471 8.6605 87.3812 8.67599C86.9078 8.66995 86.439 8.77129 86.0096 8.9725C85.5825 9.1844 85.2263 9.51769 84.9865 9.93095H84.9549V8.89431H82.8508V19.8185H85.0597V15.9848H85.0898C85.3496 16.3722 85.7074 16.6825 86.1268 16.8838C86.5578 17.0895 87.0288 17.1941 87.5053 17.1896C88.0427 17.1999 88.5747 17.0797 89.055 16.8394C89.4875 16.617 89.8661 16.3013 90.1622 15.9149C90.4644 15.5172 90.6887 15.0662 90.8244 14.5852C90.9702 14.0767 91.0434 13.5501 91.0419 13.0209C91.0442 12.463 90.9709 11.9074 90.8244 11.3691C90.6903 10.8708 90.4628 10.4029 90.1537 9.99049ZM88.7366 13.9186C88.6819 14.2086 88.5731 14.4858 88.4174 14.7358C88.153 15.1081 87.7636 15.3714 87.3203 15.4767C86.8777 15.5819 86.4113 15.5219 86.0096 15.3078C85.7667 15.168 85.5609 14.9718 85.4098 14.7358C85.2525 14.4855 85.1422 14.2086 85.0829 13.9186C85.015 13.6054 84.9811 13.2855 84.9819 12.9649C84.9811 12.6389 85.0119 12.3136 85.0736 11.9936C85.1299 11.6998 85.2386 11.4185 85.3943 11.1636C85.5439 10.9254 85.7467 10.7256 85.9865 10.58C86.2625 10.4177 86.5778 10.3367 86.8978 10.3465C87.2123 10.338 87.5223 10.4189 87.7929 10.58C88.0358 10.729 88.2408 10.9323 88.3927 11.1742C88.5531 11.4309 88.6664 11.7143 88.7273 12.0111C88.796 12.3252 88.8299 12.6458 88.8283 12.9673C88.8307 13.2865 88.8014 13.6051 88.7412 13.9186H88.7366ZM99.6423 11.375C99.5097 10.8745 99.2822 10.4044 98.9715 9.99049C98.6685 9.59101 98.2799 9.26476 97.8351 9.0356C97.327 8.78414 96.7657 8.66074 96.199 8.67599C95.7256 8.67034 95.2577 8.77168 94.8282 8.9725C94.4011 9.18471 94.0449 9.51792 93.8043 9.93095H93.7743V8.89431H91.6656V19.8185H93.8737V15.9848H93.9053C94.1644 16.3719 94.5221 16.6822 94.9415 16.8838C95.3718 17.0895 95.8436 17.1941 96.3201 17.1896C96.8575 17.1999 97.3894 17.0797 97.8705 16.8394C98.3031 16.617 98.6808 16.3013 98.9761 15.9149C99.2784 15.5172 99.5035 15.0662 99.6392 14.5852C99.7857 14.0768 99.8589 13.5502 99.8574 13.0209C99.862 12.4653 99.7911 11.9116 99.6469 11.375H99.6423ZM97.5498 13.9186C97.4958 14.2088 97.3871 14.486 97.2306 14.7358C97.0672 14.9867 96.8444 15.1929 96.5814 15.3356C96.3193 15.4783 96.0248 15.5531 95.7264 15.5531C95.428 15.5531 95.1343 15.4783 94.8714 15.3356C94.6092 15.1929 94.3864 14.9867 94.223 14.7358C94.0665 14.4852 93.9554 14.2085 93.8961 13.9186C93.829 13.6053 93.7951 13.2855 93.7951 12.9649C93.7943 12.6389 93.8251 12.3136 93.8884 11.9936C93.9485 11.6988 94.0618 11.4175 94.223 11.1636C94.3726 10.9259 94.5753 10.7262 94.8143 10.58C95.0903 10.4177 95.4065 10.3367 95.7256 10.3465C96.0402 10.3379 96.3509 10.4189 96.6208 10.58C96.8644 10.7289 97.0703 10.9323 97.2221 11.1742C97.3825 11.4309 97.4958 11.7143 97.5567 12.0111C97.6254 12.3252 97.6593 12.6458 97.6577 12.9673C97.6562 13.2869 97.623 13.6055 97.5591 13.9186H97.5498Z" fill="white"/>
<path d="M22.9163 11.09C22.8083 8.12372 21.5636 5.31406 19.4417 3.24758C17.3199 1.18111 14.4851 0.0175929 11.5293 3.17778e-06H11.4734C9.48288 -0.00148173 7.52634 0.517453 5.79613 1.50574C4.06596 2.49403 2.62184 3.91762 1.60586 5.63643C0.589886 7.35525 0.0370692 9.31009 0.00180016 11.3085C-0.0334681 13.307 0.450028 15.2802 1.40472 17.0341L0.390986 23.1254C0.389336 23.1379 0.390353 23.1506 0.393977 23.1627C0.397593 23.1747 0.403738 23.1859 0.411987 23.1954C0.420237 23.2049 0.430406 23.2125 0.441817 23.2178C0.453228 23.223 0.465625 23.2258 0.478177 23.2258H0.495617L6.49545 21.8857C8.04568 22.633 9.74332 23.0208 11.4629 23.0204C11.5723 23.0204 11.6815 23.0204 11.7908 23.0204C13.3035 22.977 14.7926 22.6333 16.1722 22.009C17.5519 21.3846 18.7948 20.4922 19.8291 19.383C20.8635 18.2738 21.6689 16.9699 22.1987 15.5465C22.7285 14.1231 22.9724 12.6085 22.9163 11.09ZM11.7338 21.0183C11.6431 21.0183 11.5525 21.0183 11.4629 21.0183C9.94316 21.0202 8.44513 20.655 7.09532 19.9537L6.78841 19.7926L2.71954 20.758L3.47054 16.6244L3.29616 16.3278C2.4633 14.902 2.01469 13.2829 1.99453 11.6299C1.97436 9.97698 2.38334 8.34723 3.18117 6.90131C3.97901 5.45535 5.13817 4.24303 6.54451 3.38375C7.95084 2.52446 9.55582 2.04785 11.2014 2.00086C11.2929 2.00086 11.3847 2.00086 11.4769 2.00086C13.9614 2.00826 16.3436 2.99541 18.1101 4.74966C19.8767 6.5039 20.8863 8.88483 20.9214 11.3794C20.9564 13.874 20.0142 16.2825 18.2976 18.0861C16.581 19.8898 14.2276 20.9441 11.7443 21.0219L11.7338 21.0183Z" fill="white"/>
<path d="M7.47749 5.95369C7.33586 5.95647 7.1962 5.98776 7.06681 6.04571C6.93741 6.10366 6.8209 6.18709 6.7242 6.29106C6.451 6.5724 5.68721 7.24947 5.64304 8.67132C5.59887 10.0931 6.58818 11.4998 6.72652 11.6971C6.86487 11.8944 8.61794 14.9657 11.5057 16.2113C13.203 16.9456 13.947 17.0716 14.4295 17.0716C14.6283 17.0716 14.7782 17.0507 14.9351 17.0413C15.4641 17.0086 16.6581 16.3946 16.9184 15.7269C17.1789 15.0591 17.1963 14.4755 17.1277 14.3587C17.0592 14.242 16.8708 14.1579 16.5872 14.0085C16.3035 13.859 14.9119 13.1119 14.6503 13.0069C14.5533 12.9615 14.449 12.9343 14.3423 12.9264C14.2728 12.93 14.2052 12.9506 14.1455 12.9864C14.0857 13.0222 14.0356 13.0721 13.9993 13.1318C13.7669 13.4225 13.2333 14.054 13.0542 14.2361C13.0151 14.2814 12.9669 14.3178 12.9128 14.3432C12.8588 14.3685 12.8 14.3822 12.7403 14.3832C12.6303 14.3784 12.5228 14.3493 12.4253 14.298C11.5823 13.9385 10.8138 13.4238 10.1595 12.7804C9.54807 12.1753 9.02934 11.4826 8.62025 10.7247C8.4622 10.4305 8.62025 10.2788 8.76443 10.1411C8.90861 10.0032 9.06319 9.81303 9.21199 9.64836C9.33412 9.50776 9.43589 9.3506 9.5143 9.18144C9.55485 9.10294 9.57536 9.01553 9.57389 8.92712C9.57251 8.83863 9.54922 8.75199 9.50612 8.67481C9.43758 8.52771 8.92487 7.08137 8.68425 6.50119C8.48895 6.00506 8.25642 5.98872 8.05296 5.97354C7.88558 5.96187 7.69375 5.95603 7.50193 5.9502H7.47749" fill="white"/>
</svg>
