<svg width="18" height="18" viewBox="0 0 18 18" fill="none" xmlns="http://www.w3.org/2000/svg">
<path d="M8.66865 10.2352L8.60595 10.2884L3.41019 15.389C3.78162 15.6179 4.21913 15.75 4.6875 15.75H13.3125C13.7809 15.75 14.2184 15.6179 14.5898 15.389L9.39405 10.2884L9.324 10.2299C9.12788 10.0914 8.86305 10.0932 8.66865 10.2352ZM15.75 4.6875C15.75 3.3413 14.6587 2.25 13.3125 2.25H4.6875C3.3413 2.25 2.25 3.3413 2.25 4.6875V13.3125C2.25 13.7828 2.38318 14.2219 2.6139 14.5944L7.81785 9.48563L7.9194 9.3936C8.54558 8.87048 9.46125 8.87197 10.0858 9.39795L10.1821 9.48563L15.3861 14.5944C15.6168 14.2219 15.75 13.7828 15.75 13.3125V4.6875ZM11.4375 8.0625C10.609 8.0625 9.9375 7.39093 9.9375 6.5625C9.9375 5.73407 10.609 5.0625 11.4375 5.0625C12.266 5.0625 12.9375 5.73407 12.9375 6.5625C12.9375 7.39093 12.266 8.0625 11.4375 8.0625Z" fill="white"/>
</svg>
