<svg width="26" height="20" viewBox="0 0 26 20" fill="none" xmlns="http://www.w3.org/2000/svg">
<g clip-path="url(#clip0_164_5625)">
<path d="M25.024 3.2146H17.1836C16.646 3.2146 16.2055 3.64948 16.2055 4.17815V5.25468H5.57097C5.03547 5.25468 4.59497 5.68742 4.59497 6.21822V19.0343C4.59497 19.5629 5.03547 19.9978 5.57097 19.9978H25.024C25.5617 19.9978 26 19.5629 26 19.0343V4.17815C26 3.64948 25.5595 3.2146 25.024 3.2146Z" fill="#EF5F4B"/>
<path d="M24.577 6.78955H6.01794V19.7591H24.577V6.78955Z" fill="white"/>
<path d="M25.6308 19.1067C25.8338 19.597 25.5596 19.9999 25.0219 19.9999H5.57102C5.03552 19.9999 4.42876 19.5991 4.22578 19.1067L0.0669925 9.02992C-0.135981 8.53962 0.138249 8.13672 0.673753 8.13672H20.1268C20.6644 8.13672 21.2691 8.53749 21.472 9.02992L25.6308 19.1067Z" fill="#EF5F4B"/>
<path d="M15.0568 0H13.6295C13.4398 0 13.2861 0.151752 13.2861 0.338947V5.92198C13.2861 6.10917 13.4398 6.26093 13.6295 6.26093H15.0568C15.2464 6.26093 15.4001 6.10917 15.4001 5.92198V0.338947C15.4001 0.151752 15.2464 0 15.0568 0Z" fill="#223757"/>
<path d="M16.8144 4.1228C17.2851 4.1228 17.4363 4.42551 17.1491 4.7943L14.8667 7.72971C14.5796 8.0985 14.111 8.0985 13.8216 7.72971L11.5393 4.7943C11.2521 4.42551 11.4032 4.1228 11.874 4.1228H16.8144Z" fill="#223757"/>
</g>
<defs>
<clipPath id="clip0_164_5625">
<rect width="26" height="20" fill="white"/>
</clipPath>
</defs>
</svg>
