<svg width="18" height="18" viewBox="0 0 18 18" fill="none" xmlns="http://www.w3.org/2000/svg">
<path d="M13.618 12.6619L12.7277 13.5423C12.0715 14.1863 11.2202 15.0143 10.1733 16.0264C9.51914 16.659 8.48129 16.6589 7.82721 16.0263L5.20886 13.4793C4.87979 13.1562 4.60434 12.8838 4.38246 12.6619C1.83215 10.1116 1.83215 5.97671 4.38246 3.4264C6.93276 0.876095 11.0677 0.876095 13.618 3.4264C16.1683 5.97671 16.1683 10.1116 13.618 12.6619ZM10.8754 8.25019C10.8754 7.21455 10.0358 6.37501 9.00021 6.37501C7.96461 6.37501 7.12505 7.21455 7.12505 8.25019C7.12505 9.28579 7.96461 10.1253 9.00021 10.1253C10.0358 10.1253 10.8754 9.28579 10.8754 8.25019Z" fill="white"/>
</svg>
