<svg width="31" height="30" viewBox="0 0 31 30" fill="none" xmlns="http://www.w3.org/2000/svg">
<g clip-path="url(#clip0_252_1108)">
<path d="M24.0373 16.0415C20.1915 16.0415 17.0747 19.1657 17.0747 23.0208C17.0747 26.8759 20.1915 30.0001 24.0373 30.0001C27.8832 30.0001 30.9999 26.8759 30.9999 23.0208C30.9999 19.1657 27.8832 16.0415 24.0373 16.0415ZM27.8649 24.0805H25.0981V26.8539H22.9802V24.0805H20.2133V21.9575H22.9802V19.184H25.0981V21.9575H27.8649V24.0805Z" fill="#C1C1C1"/>
<path d="M24.0374 14.4957C25.5757 14.4957 27.0156 14.905 28.2587 15.6212V4.61876H13.8231L9.21543 0H0V21.3837C0 23.5177 1.72789 25.2497 3.85677 25.2497H15.8317C15.6422 24.5408 15.5365 23.7917 15.5365 23.0244C15.5365 18.3179 19.3422 14.4994 24.041 14.4994L24.0374 14.4957Z" fill="#C1C1C1"/>
</g>
<defs>
<clipPath id="clip0_252_1108">
<rect width="31" height="30" fill="white"/>
</clipPath>
</defs>
</svg>
