<svg width="30" height="30" viewBox="0 0 30 30" fill="none" xmlns="http://www.w3.org/2000/svg">
<g clip-path="url(#clip0_743_1728)">
<path d="M15 0C6.71633 0 0 6.71633 0 15C0 23.2837 6.71633 30 15 30C23.2837 30 30 23.2837 30 15C30 6.71633 23.2848 0 15 0ZM14.9942 24.1903C14.0425 24.1903 13.271 23.4188 13.271 22.4671C13.271 21.5154 14.0425 20.7438 14.9942 20.7438C15.9459 20.7438 16.7175 21.5154 16.7175 22.4671C16.7175 23.4188 15.9459 24.1903 14.9942 24.1903ZM16.7175 17.0201C16.7175 17.9718 15.9459 18.7434 14.9942 18.7434C14.0425 18.7434 13.271 17.9718 13.271 17.0201V7.62301C13.271 6.67129 14.0425 5.89975 14.9942 5.89975C15.9459 5.89975 16.7175 6.67129 16.7175 7.62301V17.0201Z" fill="white"/>
</g>
<defs>
<clipPath id="clip0_743_1728">
<rect width="30" height="30" fill="white"/>
</clipPath>
</defs>
</svg>
