<svg width="19" height="11" viewBox="0 0 19 11" fill="none" xmlns="http://www.w3.org/2000/svg">
<g clip-path="url(#clip0_164_5925)">
<path d="M18.5315 11H0.468534C0.209903 11 0 10.7907 0 10.5328V7.77064C0 7.623 0.0712172 7.48284 0.189288 7.39501C0.800256 6.94461 1.15072 6.25314 1.15072 5.5C1.15072 4.74686 0.800256 4.05725 0.189288 3.60686C0.0693431 3.51903 0 3.37887 0 3.23123V0.46721C0 0.20931 0.209903 0 0.468534 0H18.5315C18.7901 0 19 0.20931 19 0.46721V3.22936C19 3.377 18.9288 3.51716 18.8107 3.605C18.1997 4.05539 17.8493 4.74686 17.8493 5.49813C17.8493 6.24941 18.1997 6.94088 18.8107 7.39314C18.9307 7.48097 19 7.62113 19 7.76877V10.5309C19 10.7888 18.7901 10.9981 18.5315 10.9981V11ZM0.937068 10.0656H18.0629V7.9949C17.3376 7.37258 16.9122 6.45685 16.9122 5.5C16.9122 4.54315 17.3376 3.62929 18.0629 3.00697V0.934421H0.937068V3.0051C1.66236 3.62742 2.08779 4.54315 2.08779 5.49813C2.08779 6.45311 1.66049 7.36884 0.937068 7.99303V10.0637V10.0656Z" fill="#EF0600"/>
<path d="M3.25726 1.70239V9.2955H15.7409V1.70239H3.25726ZM12.2906 3.66094L11.2711 4.67759L11.5897 7.87518L10.9843 8.47881L9.99666 5.9484L8.94714 6.99495C8.82532 7.11643 8.66602 7.18184 8.50672 7.18931L8.87593 7.92003L8.43925 8.35547L7.60526 7.38554L6.63258 6.5539L7.06926 6.11846L7.80205 6.48663C7.80954 6.32591 7.87514 6.16892 7.99696 6.04745L9.04647 5.0009L6.50889 4.01789L7.11424 3.41425L10.3209 3.73195L11.3404 2.7153C11.6028 2.45367 12.0282 2.45367 12.2906 2.7153C12.553 2.97694 12.553 3.40117 12.2906 3.66281V3.66094Z" fill="#EF0600"/>
</g>
<defs>
<clipPath id="clip0_164_5925">
<rect width="19" height="11" fill="white"/>
</clipPath>
</defs>
</svg>
