<svg xmlns="http://www.w3.org/2000/svg" width="20" height="20" viewBox="0 0 20 20" fill="none">
<path d="M10 5.625C7.5875 5.625 5.625 7.5875 5.625 10C5.625 12.4125 7.5875 14.375 10 14.375C12.4125 14.375 14.375 12.4125 14.375 10C14.375 7.5875 12.4125 5.625 10 5.625ZM10 13.125C8.27688 13.125 6.875 11.7231 6.875 10C6.875 8.27688 8.27688 6.875 10 6.875C11.7231 6.875 13.125 8.27688 13.125 10C13.125 11.7231 11.7231 13.125 10 13.125Z" fill="white"/>
<path d="M10 4.375C10.345 4.375 10.625 4.095 10.625 3.75V2.5C10.625 2.155 10.345 1.875 10 1.875C9.655 1.875 9.375 2.155 9.375 2.5V3.75C9.375 4.095 9.655 4.375 10 4.375Z" fill="white"/>
<path d="M10 15.625C9.655 15.625 9.375 15.905 9.375 16.25V17.5C9.375 17.845 9.655 18.125 10 18.125C10.345 18.125 10.625 17.845 10.625 17.5V16.25C10.625 15.905 10.345 15.625 10 15.625Z" fill="white"/>
<path d="M17.5 9.375H16.25C15.905 9.375 15.625 9.655 15.625 10C15.625 10.345 15.905 10.625 16.25 10.625H17.5C17.845 10.625 18.125 10.345 18.125 10C18.125 9.655 17.845 9.375 17.5 9.375Z" fill="white"/>
<path d="M4.375 10C4.375 9.655 4.095 9.375 3.75 9.375H2.5C2.155 9.375 1.875 9.655 1.875 10C1.875 10.345 2.155 10.625 2.5 10.625H3.75C4.095 10.625 4.375 10.345 4.375 10Z" fill="white"/>
<path d="M14.4197 6.20571C14.5797 6.20571 14.7394 6.14478 14.8616 6.02259L15.7453 5.13853C15.9894 4.89446 15.9894 4.49884 15.7453 4.25446C15.5013 4.01071 15.1056 4.0104 14.8616 4.25446L13.9778 5.13853C13.7338 5.38259 13.7338 5.77821 13.9778 6.02259C14.0997 6.14478 14.2597 6.20571 14.4197 6.20571Z" fill="white"/>
<path d="M5.13875 13.9777L4.25469 14.8615C4.01062 15.1052 4.01062 15.5012 4.25469 15.7452C4.37687 15.8674 4.53687 15.9283 4.69687 15.9283C4.85687 15.9283 5.01656 15.8674 5.13875 15.7452L6.02281 14.8615C6.26687 14.6177 6.26687 14.2218 6.02281 13.9777C5.77844 13.7333 5.38281 13.7333 5.13875 13.9777Z" fill="white"/>
<path d="M14.8616 13.9777C14.6175 13.7337 14.2219 13.7337 13.9778 13.9777C13.7338 14.2218 13.7338 14.6174 13.9778 14.8615L14.8616 15.7452C14.9838 15.8674 15.1434 15.9283 15.3034 15.9283C15.4634 15.9283 15.6231 15.8674 15.7453 15.7452C15.9894 15.5012 15.9894 15.1055 15.7453 14.8615L14.8616 13.9777Z" fill="white"/>
<path d="M5.13875 6.02239C5.26062 6.14458 5.42062 6.20552 5.58062 6.20552C5.74062 6.20552 5.90062 6.14458 6.0225 6.02239C6.26656 5.77833 6.26656 5.38271 6.0225 5.13864L5.13844 4.25458C4.89469 4.01052 4.49844 4.01052 4.25469 4.25458C4.01062 4.49864 4.01062 4.89427 4.25469 5.13833L5.13875 6.02239Z" fill="white"/>
</svg>