<svg width="23" height="20" viewBox="0 0 23 20" fill="none" xmlns="http://www.w3.org/2000/svg">
<g clip-path="url(#clip0_164_5546)">
<path d="M23 2.51842C23 2.13151 22.6765 1.81494 22.2812 1.81494H0.718825C0.323471 1.81494 0 2.13151 0 2.51842V5.91624H23V2.51842Z" fill="#223757"/>
<path d="M0 5.91626V19.2965C0 19.6834 0.323471 20 0.718825 20H22.2812C22.6765 20 23 19.6834 23 19.2965V5.91626H0Z" fill="#EFEFEF"/>
<path d="M9.91977 16.1331C10.1258 16.3559 10.4182 16.4825 10.7225 16.4825C10.7464 16.4825 10.7704 16.4825 10.7967 16.4801C11.1274 16.459 11.4293 16.2879 11.6186 16.0205L15.8932 9.89555C16.2311 9.41249 16.1041 8.75122 15.6105 8.42293C15.1169 8.09229 14.4412 8.21657 14.1033 8.69963L10.6027 13.7131L8.8008 11.7645C8.39826 11.3307 7.71298 11.2955 7.2697 11.6894C6.82643 12.081 6.79049 12.754 7.19303 13.1878L9.91738 16.1331H9.91977Z" fill="#EF5F4B"/>
<path d="M5.31691 0H4.21711C3.92598 0 3.68997 0.23097 3.68997 0.515887V2.73186C3.68997 3.01677 3.92598 3.24774 4.21711 3.24774H5.31691C5.60804 3.24774 5.84405 3.01677 5.84405 2.73186V0.515887C5.84405 0.23097 5.60804 0 5.31691 0Z" fill="#EF5F4B"/>
<path d="M12.0499 0H10.9501C10.659 0 10.423 0.23097 10.423 0.515887V2.73186C10.423 3.01677 10.659 3.24774 10.9501 3.24774H12.0499C12.341 3.24774 12.5771 3.01677 12.5771 2.73186V0.515887C12.5771 0.23097 12.341 0 12.0499 0Z" fill="#EF5F4B"/>
<path d="M18.7829 0H17.6831C17.392 0 17.1559 0.23097 17.1559 0.515887V2.73186C17.1559 3.01677 17.392 3.24774 17.6831 3.24774H18.7829C19.074 3.24774 19.31 3.01677 19.31 2.73186V0.515887C19.31 0.23097 19.074 0 18.7829 0Z" fill="#EF5F4B"/>
</g>
<defs>
<clipPath id="clip0_164_5546">
<rect width="23" height="20" fill="white"/>
</clipPath>
</defs>
</svg>
