<svg xmlns="http://www.w3.org/2000/svg" width="20" height="20" viewBox="0 0 20 20" fill="none">
<path d="M18.2557 4.68538C18.3072 4.85874 18.3333 5.03864 18.3333 5.21949V14.7823C18.3333 15.8178 17.4938 16.6573 16.4583 16.6573C16.2774 16.6573 16.0975 16.6312 15.9241 16.5796L11.3292 15.2132C10.7815 16.3341 9.63199 17.0829 8.33332 17.0829C6.54816 17.0829 5.09076 15.6797 5.00407 13.916L4.99999 13.7496L4.99916 13.3323L3.00741 12.7401C2.21204 12.5037 1.66666 11.7726 1.66666 10.9428V9.05783C1.66666 8.22805 2.21211 7.49693 3.00756 7.26055L15.9242 3.42217C16.9168 3.12719 17.9607 3.69275 18.2557 4.68538ZM6.24916 13.704L6.24999 13.7496C6.24999 14.9002 7.18273 15.8329 8.33332 15.8329C9.07099 15.8329 9.73191 15.4461 10.1032 14.8501L6.24916 13.704Z" fill="#222222"/>
</svg>