<svg width="18" height="18" viewBox="0 0 18 18" fill="none" xmlns="http://www.w3.org/2000/svg">
<path d="M13.3124 1.50073C14.2055 1.50073 14.9366 2.1946 14.996 3.0727L14.9999 3.18823V14.8117C14.9999 15.7049 14.306 16.436 13.4279 16.4954L13.3124 16.4992H4.6875C3.79435 16.4992 3.06327 15.8054 3.00389 14.9273L3 14.8117V3.18823C3 2.29508 3.69387 1.564 4.57196 1.50463L4.6875 1.50073H13.3124ZM9.18608 9.74797H5.81245L5.73613 9.75315C5.46157 9.79035 5.24995 10.0257 5.24995 10.3105C5.24995 10.5952 5.46157 10.8306 5.73613 10.8679L5.81245 10.873H9.18608L9.26235 10.8679C9.53693 10.8306 9.74858 10.5952 9.74858 10.3105C9.74858 10.0257 9.53693 9.79035 9.26235 9.75315L9.18608 9.74797ZM12.1874 7.49899H5.81245L5.73613 7.50412C5.46157 7.5414 5.24995 7.77675 5.24995 8.06152C5.24995 8.3463 5.46157 8.58157 5.73613 8.61885L5.81245 8.62402H12.1874L12.2638 8.61885C12.5384 8.58157 12.7499 8.3463 12.7499 8.06152C12.7499 7.77675 12.5384 7.5414 12.2638 7.50412L12.1874 7.49899ZM12.1874 5.25001H5.81245L5.73613 5.25514C5.46157 5.29239 5.24995 5.52773 5.24995 5.8125C5.24995 6.09728 5.46157 6.33262 5.73613 6.36987L5.81245 6.375H12.1874L12.2638 6.36987C12.5384 6.33262 12.7499 6.09728 12.7499 5.8125C12.7499 5.52773 12.5384 5.29239 12.2638 5.25514L12.1874 5.25001Z" fill="white"/>
</svg>
