<svg width="14" height="14" viewBox="0 0 14 14" fill="none" xmlns="http://www.w3.org/2000/svg">
<g clip-path="url(#clip0_616_6088)">
<path d="M11.9382 3.90527C11.8152 3.90527 11.6962 3.91885 11.5798 3.9392V8.10459C11.6962 8.12631 11.8166 8.13853 11.9382 8.13853C13.0769 8.13853 14 7.19117 14 6.02258C14 4.85399 13.0769 3.90527 11.9382 3.90527Z" fill="#223757"/>
<path d="M5.16436 6.71289H3.27054V13.9999H5.16436V6.71289Z" fill="#223757"/>
<path d="M7.3994 2.57195H3.36048C1.50501 2.57195 0 4.1165 0 6.02072C0 7.92493 1.50501 9.46948 3.36048 9.46948H7.3994L10.9728 11.5922V0.449219L7.3994 2.5706V2.57195Z" fill="#223757"/>
<path d="M11.4833 0.14501L10.9715 0.449033V11.592L11.4833 11.8961C12.0572 12.2367 12.5267 11.9585 12.5267 11.2785V0.763915C12.5267 0.0825768 12.0559 -0.195659 11.4833 0.146367V0.14501Z" fill="white"/>
</g>
<defs>
<clipPath id="clip0_616_6088">
<rect width="14" height="14" fill="white"/>
</clipPath>
</defs>
</svg>
