<svg width="32" height="32" viewBox="0 0 32 32" fill="none" xmlns="http://www.w3.org/2000/svg">
<path d="M13.2018 17.0629C17.685 17.0629 21.3295 13.2364 21.3295 8.52955C21.3295 3.82268 17.6812 0 13.2018 0C8.72245 0 5.07031 3.82645 5.07031 8.53331C5.07031 13.2402 8.71863 17.0666 13.198 17.0666L13.2018 17.0629ZM14.6848 4.50369C14.6848 4.50369 15.6455 7.25783 19.3052 8.52955C19.3052 12.134 16.5642 15.065 13.198 15.065C9.83181 15.065 7.09462 12.134 7.0908 8.53331C7.72364 8.5446 11.8752 8.47311 14.681 4.50369H14.6848Z" fill="black"/>
<path d="M22.6829 19.0193C21.6688 17.9846 20.4832 17.1155 19.168 16.457C17.5287 17.8416 15.4587 18.6731 13.2018 18.6731C10.945 18.6731 8.8711 17.8416 7.23564 16.457C2.94305 18.6092 0 23 0 28.0756H18.5199C18.3026 27.3758 18.1844 26.6346 18.1844 25.867C18.1844 22.8156 20.0334 20.1932 22.6829 19.0193Z" fill="black"/>
<path d="M25.7936 19.7419C22.3664 19.7419 19.5835 22.4848 19.5835 25.871C19.5835 29.2573 22.3626 32.0001 25.7936 32.0001C29.2247 32.0001 32.0038 29.2573 32.0038 25.871C32.0038 22.4848 29.2247 19.7419 25.7936 19.7419ZM29.6898 25.2201L25.5001 29.3551C25.3019 29.5507 25.0388 29.6486 24.7796 29.6486C24.5204 29.6486 24.2573 29.5507 24.0591 29.3551L21.6726 26.9998C21.2761 26.6085 21.2761 25.9726 21.6726 25.5776C22.0691 25.1863 22.7134 25.1863 23.1136 25.5776L24.7796 27.2218L28.2487 23.7979C28.6452 23.4066 29.2895 23.4066 29.6898 23.7979C30.0862 24.1892 30.0862 24.8251 29.6898 25.2201Z" fill="#EF0600"/>
</svg>
