<svg width="18" height="18" viewBox="0 0 18 18" fill="none" xmlns="http://www.w3.org/2000/svg">
<path d="M9 1.5C13.1421 1.5 16.5 4.85786 16.5 9C16.5 13.1421 13.1421 16.5 9 16.5C7.7697 16.5 6.58137 16.2029 5.51684 15.6437L2.29904 16.4815C1.95833 16.5703 1.61017 16.366 1.52143 16.0253C1.49399 15.92 1.49398 15.8093 1.52141 15.704L2.35868 12.4876C1.7979 11.422 1.5 10.2321 1.5 9C1.5 4.85786 4.85786 1.5 9 1.5ZM9.93878 9.75H6.5625L6.48617 9.7551C6.21161 9.79237 6 10.0277 6 10.3125C6 10.5973 6.21161 10.8326 6.48617 10.8699L6.5625 10.875H9.93878L10.0151 10.8699C10.2897 10.8326 10.5013 10.5973 10.5013 10.3125C10.5013 10.0277 10.2897 9.79237 10.0151 9.7551L9.93878 9.75ZM11.4375 7.125H6.5625L6.48617 7.13014C6.21161 7.16738 6 7.40273 6 7.6875C6 7.97227 6.21161 8.20763 6.48617 8.2449L6.5625 8.25H11.4375L11.5139 8.2449C11.7884 8.20763 12 7.97227 12 7.6875C12 7.40273 11.7884 7.16738 11.5139 7.13014L11.4375 7.125Z" fill="white"/>
</svg>
