<svg width="14" height="13" viewBox="0 0 14 13" fill="none" xmlns="http://www.w3.org/2000/svg">
<path d="M13.1738 10.1422L13.2079 10.1432H13.3349L13.4152 10.1422C13.432 10.1447 13.4478 10.1437 13.4625 10.1403C13.6836 10.1758 13.8376 10.274 13.925 10.4351C13.9779 10.5323 14.0028 10.686 13.9998 10.8957C13.9911 11.4848 13.9886 12.0096 13.9911 12.4708C13.9916 12.5797 13.9484 12.6828 13.8625 12.7796C13.7319 12.927 13.5565 13.0005 13.337 13C11.9352 12.9976 7.78414 12.9976 0.884401 12.999C0.56775 12.999 0.370542 12.9771 0.292777 12.9338C0.171809 12.8662 0.0879449 12.7665 0.0416925 12.6337C0.0147543 12.5569 0.00153941 12.426 0.00204768 12.2412C0.00204768 11.6015 0.00204763 11.1024 1.45566e-05 10.7439C-0.00201852 10.3631 0.208913 10.1641 0.6323 10.1461L0.666354 10.1417L0.949968 10.1437H1.06026L1.34337 10.151C1.36827 10.151 1.3886 10.1325 1.3886 10.1087C1.39114 8.51268 1.39165 6.98577 1.38962 5.52794C1.38962 5.31488 1.38809 4.91747 1.4379 4.63923C1.45569 4.53854 1.4806 4.40964 1.51211 4.25155C1.64934 3.56519 1.9233 2.93235 2.33347 2.35204C3.18025 1.15542 4.34367 0.40972 5.82324 0.114943C5.96911 0.0862436 6.25019 0.0526799 6.66646 0.0142519C6.97498 -0.013961 7.35211 -0.000341051 7.79786 0.0555984C9.1097 0.220498 10.3285 0.887881 11.2104 1.84469C11.9296 2.62492 12.3667 3.55741 12.5131 4.57843C12.5451 4.80316 12.5629 5.0955 12.5664 5.45498C12.569 5.75073 12.5705 7.30438 12.5705 10.116C12.5705 10.1296 12.5817 10.1403 12.5959 10.1403L13.1738 10.1422ZM1.49839 10.1451C1.4989 10.1821 1.53041 10.2118 1.56904 10.2118H10.7545C10.7839 10.2118 10.8078 10.1889 10.8083 10.1602C10.8114 9.51472 10.8083 7.75385 10.8012 4.87758C10.8002 4.48601 10.724 4.04725 10.5725 3.5613C10.5125 3.36819 10.4261 3.16583 10.3138 2.95375C10.1715 2.68573 10.0632 2.49067 9.98951 2.36955C9.64694 1.80675 9.17629 1.33734 8.57755 0.962305C8.04641 0.629586 7.48477 0.370319 6.86163 0.252116C6.48602 0.180611 6.08856 0.17526 5.75158 0.232173C4.55867 0.433068 3.49588 1.10386 2.71417 2.00181C2.32839 2.44494 2.03512 2.94645 1.83435 3.50731C1.70017 3.88089 1.57463 4.25544 1.54108 4.62075C1.50855 4.9773 1.49178 5.22635 1.49076 5.36791C1.47958 6.98237 1.48212 8.57446 1.49839 10.1451Z" fill="#EF0600"/>
<path d="M1.49834 10.1452C1.48208 8.57454 1.47954 6.98245 1.49072 5.36799C1.49174 5.22644 1.50851 4.97739 1.54104 4.62083C1.57458 4.25552 1.70013 3.88097 1.83431 3.50739C2.03508 2.94654 2.32835 2.44503 2.71412 2.00189C3.49584 1.10394 4.55863 0.433152 5.75153 0.232256C6.08851 0.175343 6.48598 0.180694 6.86159 0.2522C7.48472 0.370402 8.04636 0.62967 8.5775 0.962388C9.17624 1.33743 9.6469 1.80683 9.98947 2.36963C10.0632 2.49075 10.1714 2.68581 10.3137 2.95383C10.4261 3.16592 10.5125 3.36827 10.5725 3.56139C10.7239 4.04733 10.8002 4.48609 10.8012 4.87767C10.8088 7.75393 10.8113 9.51481 10.8083 10.1603C10.8078 10.189 10.7839 10.2119 10.7544 10.2119H1.56899C1.53037 10.2119 1.49885 10.1822 1.49834 10.1452ZM4.85088 1.59621C4.74109 1.6035 4.62623 1.64582 4.50678 1.72317C4.37667 1.80732 4.29433 1.86666 4.25976 1.90023C4.05341 2.10161 3.83129 2.29326 3.59393 2.4747C3.1675 2.84341 2.83763 3.30358 2.60332 3.85519C2.46151 4.1884 2.37053 4.55954 2.33038 4.96863C2.31716 5.10337 2.32275 5.23227 2.34664 5.35437C2.42593 5.76151 2.87067 5.98721 3.26813 5.82864C3.42417 5.76589 3.53345 5.66423 3.59546 5.52365C3.66916 5.35486 3.62951 5.09705 3.67729 4.89566C3.85163 4.16748 4.23893 3.58036 4.83817 3.1343C5.00489 3.01026 5.17617 2.94021 5.37745 2.87114C5.52332 2.82104 5.62446 2.76802 5.68088 2.71208C5.92587 2.46935 5.95281 2.08264 5.72002 1.83553C5.54873 1.65312 5.10349 1.41477 4.85088 1.59621Z" fill="#EF0600"/>
<path d="M3.5933 2.47479C3.46775 2.62948 3.33865 2.78659 3.20498 2.94614C3.1079 3.0624 2.95948 3.3134 2.75974 3.69865C2.5488 4.10579 2.42885 4.53337 2.40039 4.98186C2.38718 5.18859 2.3704 5.42062 2.50509 5.57919C2.80091 5.92699 3.35238 5.90218 3.54857 5.46196C3.55772 5.44153 3.5628 5.42013 3.56382 5.39824C3.57246 5.14481 3.58211 4.99402 3.59228 4.94586C3.75696 4.1486 4.24032 3.43014 4.95037 2.98068C5.09675 2.88826 5.23805 2.84983 5.44441 2.77978C5.7946 2.6611 5.93946 2.21018 5.70972 1.93096C5.49981 1.67656 5.21365 1.56468 4.85024 1.5963C5.10285 1.41486 5.54809 1.65321 5.71938 1.83562C5.95217 2.08273 5.92523 2.46944 5.68024 2.71217C5.62383 2.76811 5.52268 2.82113 5.37681 2.87123C5.17553 2.94031 5.00425 3.01035 4.83753 3.13439C4.23829 3.58045 3.85099 4.16757 3.67665 4.89576C3.62887 5.09714 3.66852 5.35495 3.59482 5.52374C3.53281 5.66432 3.42353 5.76598 3.2675 5.82873C2.87003 5.98731 2.4253 5.7616 2.34601 5.35446C2.32212 5.23237 2.31653 5.10346 2.32974 4.96872C2.36989 4.55963 2.46087 4.18849 2.60268 3.85528C2.83699 3.30367 3.16686 2.84351 3.5933 2.47479Z" fill="#EF0600"/>
<path d="M3.59419 2.47454C3.83155 2.2931 4.05366 2.10145 4.26002 1.90007C4.29458 1.8665 4.37692 1.80716 4.50703 1.723C4.62648 1.64566 4.74135 1.60334 4.85113 1.59605C5.21454 1.56443 5.5007 1.67631 5.71061 1.93071C5.94035 2.20992 5.79549 2.66084 5.4453 2.77953C5.23894 2.84958 5.09764 2.88801 4.95126 2.98043C4.24121 3.42989 3.75785 4.14835 3.59317 4.94561C3.583 4.99376 3.57335 5.14456 3.56471 5.39799C3.56369 5.41988 3.55861 5.44128 3.54946 5.46171C3.35327 5.90193 2.8018 5.92674 2.50598 5.57894C2.37129 5.42036 2.38807 5.18834 2.40128 4.9816C2.42974 4.53311 2.54969 4.10554 2.76063 3.6984C2.96037 3.31315 3.10879 3.06215 3.20587 2.94589C3.33954 2.78634 3.46864 2.62922 3.59419 2.47454Z" fill="#FFC4AE"/>
<path d="M0.665849 10.1418L0.632324 10.1462C0.638829 10.1433 0.650337 10.1418 0.665849 10.1418Z" fill="#EF0600"/>
<path d="M13.2069 10.1431L13.1733 10.1421L13.2069 10.1431Z" fill="#EF0600"/>
<path d="M13.4616 10.1401C13.4471 10.1436 13.4316 10.1445 13.415 10.1421C13.4321 10.1445 13.4476 10.1436 13.4616 10.1401Z" fill="#EF0600"/>
</svg>
