<svg width="31" height="30" viewBox="0 0 31 30" fill="none" xmlns="http://www.w3.org/2000/svg">
<g clip-path="url(#clip0_743_1702)">
<path d="M22.1562 17.7941L20.4721 10.2336C20.2388 9.18969 19.3056 8.44556 18.2265 8.44556H12.7731C11.6941 8.44556 10.7609 9.18969 10.5276 10.2336L8.84343 17.7941C8.62106 18.7911 9.09496 19.8134 10.0063 20.2938L11.5118 21.0922V27.7171C11.5118 28.9742 12.5398 29.9964 13.812 29.9964H17.1949C18.4635 29.9964 19.4951 28.9778 19.4951 27.7171V21.0922L21.0007 20.2938C21.9083 19.8134 22.3859 18.7911 22.1635 17.7941H22.1562Z" fill="#EF0600"/>
<path d="M15.5001 7.42693C17.3884 7.42693 18.9231 5.90977 18.9231 4.035C18.9231 2.16022 17.3884 0.643066 15.5001 0.643066C13.6118 0.643066 12.0771 2.16022 12.0771 4.035C12.0771 5.90977 13.6082 7.42693 15.5001 7.42693Z" fill="#EF0600"/>
<path d="M7.41814 17.4835L9.10229 9.92297C9.28091 9.11382 9.73294 8.42026 10.3381 7.90732C9.95166 7.57138 9.45225 7.36548 8.90909 7.36548H3.76186C2.74481 7.36548 1.86264 8.06626 1.64392 9.05241L0.0509052 16.1903C-0.160525 17.1331 0.287853 18.0976 1.14815 18.5527L2.56984 19.3041V25.5569C2.56984 26.7454 3.54314 27.7062 4.73882 27.7062H7.93214C8.96741 27.7062 9.83501 26.9838 10.0501 26.0229V21.9591L9.31737 21.569C7.83736 20.7851 7.05725 19.1054 7.41814 17.4799V17.4835Z" fill="black"/>
<path d="M6.33573 6.40096C8.1183 6.40096 9.56551 4.96689 9.56551 3.20048C9.56551 1.43408 8.1183 0 6.33573 0C4.55316 0 3.10596 1.43408 3.10596 3.20048C3.10596 4.96689 4.55316 6.40096 6.33573 6.40096Z" fill="black"/>
<path d="M30.949 16.1903L29.3597 9.05241C29.141 8.06626 28.2588 7.36548 27.2417 7.36548H22.0945C21.5513 7.36548 21.0483 7.57138 20.6655 7.90732C21.2707 8.42026 21.7227 9.11744 21.9013 9.92297L23.5854 17.4835C23.9463 19.1054 23.1662 20.7887 21.6862 21.5726L20.9535 21.9627V26.0265C21.1686 26.991 22.0362 27.7098 23.0715 27.7098H26.2648C27.4641 27.7098 28.4338 26.7454 28.4338 25.5605V19.3077L29.8554 18.5563C30.7121 18.1012 31.1605 17.1367 30.9527 16.1939L30.949 16.1903Z" fill="black"/>
<path d="M24.6643 6.40096C26.4469 6.40096 27.8941 4.96689 27.8941 3.20048C27.8941 1.43408 26.4469 0 24.6643 0C22.8818 0 21.4346 1.43408 21.4346 3.20048C21.4346 4.96689 22.8818 6.40096 24.6643 6.40096Z" fill="black"/>
</g>
<defs>
<clipPath id="clip0_743_1702">
<rect width="31" height="30" fill="white"/>
</clipPath>
</defs>
</svg>
