<svg width="19" height="20" viewBox="0 0 19 20" fill="none" xmlns="http://www.w3.org/2000/svg">
<path d="M15.2186 14.3247L13.7459 12.5759V8.45216C13.7459 6.18518 12.1556 4.28207 10.0262 3.78368V3.60285C10.0262 2.99421 9.52941 2.50244 8.91945 2.50244C8.30949 2.50244 7.81265 2.99641 7.81265 3.60285V3.78368C5.68335 4.28207 4.09302 6.18518 4.09302 8.45216V12.5759L2.62025 14.3247C2.46721 14.5055 2.43394 14.7569 2.53597 14.9708C2.63578 15.1847 2.85315 15.3215 3.09047 15.3215H14.7529C14.9902 15.3215 15.2053 15.1847 15.3074 14.9708C15.4072 14.7569 15.3739 14.5055 15.2231 14.3247H15.2186Z" fill="#222222"/>
<path d="M8.91944 17.5023C9.76229 17.5023 10.4477 16.8231 10.4477 15.9851H7.39344C7.39344 16.8231 8.07659 17.5023 8.92166 17.5023H8.91944Z" fill="#222222"/>
<circle cx="14" cy="6" r="2.5" fill="#EF0600" stroke="white"/>
</svg>
