<svg width="16" height="24" viewBox="0 0 16 24" fill="none" xmlns="http://www.w3.org/2000/svg">
<g clip-path="url(#clip0_164_5612)">
<path d="M2.93576 18.5095H1.99347C1.54592 18.5095 1.18311 18.8669 1.18311 19.3077V23.2039C1.18311 23.6448 1.54592 24.0021 1.99347 24.0021H2.93576C3.38331 24.0021 3.74612 23.6448 3.74612 23.2039V19.3077C3.74612 18.8669 3.38331 18.5095 2.93576 18.5095Z" fill="#223757"/>
<path d="M14.0066 18.5095H13.0643C12.6167 18.5095 12.2539 18.8669 12.2539 19.3077V23.2039C12.2539 23.6448 12.6167 24.0021 13.0643 24.0021H14.0066C14.4541 24.0021 14.8169 23.6448 14.8169 23.2039V19.3077C14.8169 18.8669 14.4541 18.5095 14.0066 18.5095Z" fill="#223757"/>
<path d="M0.63866 4.90894H15.3634C15.7152 4.90894 16.0021 5.18944 16.0021 5.53802V21.4239C16.0021 21.7704 15.7173 22.053 15.3634 22.053H0.63866C0.286873 22.053 0 21.7704 0 21.4239V5.53802C0 5.19151 0.284779 4.90894 0.63866 4.90894Z" fill="#EF5F4B"/>
<path d="M11.9482 7.91626H4.04974V9.97264H11.9482V7.91626Z" fill="white"/>
<path d="M5.56996 1.34273H10.428V4.9089H11.7911V0.503266C11.7911 0.22482 11.5629 0 11.2802 0H4.71772C4.43503 0 4.20679 0.22482 4.20679 0.503266V4.9089H5.56996V1.34273Z" fill="#223757"/>
</g>
<defs>
<clipPath id="clip0_164_5612">
<rect width="16" height="24" fill="white"/>
</clipPath>
</defs>
</svg>
