<svg width="28" height="30" viewBox="0 0 28 30" fill="none" xmlns="http://www.w3.org/2000/svg">
<g clip-path="url(#clip0_743_1717)">
<path d="M20.8314 0.285822L10.6399 8.57604H3.72203C1.66679 8.57604 0 10.2411 0 12.2943V15.5081C0 17.4942 1.56085 19.1134 3.52075 19.2157V27.3931C3.52075 28.8324 4.68962 29.9965 6.12688 29.9965C7.56413 29.9965 8.73301 28.8289 8.73301 27.3931V19.2263H10.6364L20.8278 27.5165C21.6542 28.1868 22.8866 27.6012 22.8866 26.5394V1.26301C22.8866 0.201156 21.6507 -0.384451 20.8278 0.285822H20.8314Z" fill="black"/>
<path d="M24.6523 10.5586V17.2437C26.4992 17.2437 27.9965 15.7479 27.9965 13.9029C27.9965 12.0579 26.4992 10.5621 24.6523 10.5621V10.5586Z" fill="#EF0600"/>
</g>
<defs>
<clipPath id="clip0_743_1717">
<rect width="28" height="30" fill="white"/>
</clipPath>
</defs>
</svg>
