<svg width="18" height="18" viewBox="0 0 18 18" fill="none" xmlns="http://www.w3.org/2000/svg">
<path d="M16.4301 4.21701C16.4764 4.37304 16.5 4.53495 16.5 4.69771V13.3043C16.5 14.2362 15.7444 14.9918 14.8125 14.9918C14.6497 14.9918 14.4878 14.9682 14.3317 14.9218L10.1962 13.6921C9.70335 14.7008 8.6688 15.3748 7.5 15.3748C5.89335 15.3748 4.58169 14.1119 4.50367 12.5246L4.5 12.3748L4.49925 11.9993L2.70668 11.4662C1.99085 11.2535 1.5 10.5955 1.5 9.84872V8.15222C1.5 7.40541 1.99091 6.74741 2.70681 6.53466L14.3318 3.08012C15.2252 2.81464 16.1646 3.32364 16.4301 4.21701ZM5.62425 12.3338L5.625 12.3748C5.625 13.4103 6.46447 14.2498 7.5 14.2498C8.1639 14.2498 8.75873 13.9016 9.09285 13.3652L5.62425 12.3338Z" fill="white"/>
</svg>
