<svg width="14" height="14" viewBox="0 0 14 14" fill="none" xmlns="http://www.w3.org/2000/svg">
<g clip-path="url(#clip0_164_5917)">
<path d="M12.477 0.0445378C12.0042 0.146862 11.5148 0.421937 11.1347 0.7986C10.5199 1.39518 10.0282 1.90153 9.10436 2.87277L2.36209 1.05241L2.3224 1.03946L1.20015 2.16177L6.37809 5.75354C4.71565 7.55526 3.50655 8.92917 3.30614 9.15329L1.21499 8.7541L0 9.96936L2.45029 10.9599L2.18673 11.8157L3.041 11.5525L4.0301 14.0001L5.2452 12.7847L4.84596 10.6934C5.07068 10.4925 6.45892 9.27014 8.27146 7.59674L11.8642 12.7774L12.9864 11.6551L11.1524 4.86894C12.1096 3.9577 12.6069 3.47461 13.199 2.86424C13.5764 2.48337 13.852 1.99438 13.955 1.52277C14.0651 1.01872 13.9721 0.587109 13.6934 0.307296C13.4137 0.0286418 12.9818 -0.0647344 12.4771 0.0445378H12.477Z" fill="#222222"/>
</g>
<defs>
<clipPath id="clip0_164_5917">
<rect width="14" height="14" fill="white"/>
</clipPath>
</defs>
</svg>
