<svg width="18" height="18" viewBox="0 0 18 18" fill="none" xmlns="http://www.w3.org/2000/svg">
<path d="M10.3125 1.5H7.6875C6.81904 1.5 6.10381 2.15604 6.01034 2.99958L4.6875 3C3.75552 3 3 3.75552 3 4.6875V14.8125C3 15.7444 3.75552 16.5 4.6875 16.5H13.3125C14.2444 16.5 15 15.7444 15 14.8125V4.6875C15 3.75552 14.2444 3 13.3125 3L11.9897 2.99958C11.8962 2.15604 11.1809 1.5 10.3125 1.5ZM7.6875 2.625H10.3125C10.6231 2.625 10.875 2.87684 10.875 3.1875C10.875 3.49816 10.6231 3.75 10.3125 3.75H7.6875C7.37684 3.75 7.125 3.49816 7.125 3.1875C7.125 2.87684 7.37684 2.625 7.6875 2.625ZM12.7727 8.27273L8.64773 12.3977C8.42805 12.6174 8.07195 12.6174 7.85227 12.3977L5.97725 10.5227C5.75758 10.3031 5.75758 9.94695 5.97725 9.72727C6.19692 9.5076 6.55308 9.5076 6.77275 9.72727L8.25 11.2045L11.9773 7.47725C12.1969 7.25759 12.5531 7.25759 12.7727 7.47725C12.9924 7.69695 12.9924 8.05305 12.7727 8.27273Z" fill="white"/>
</svg>
