<svg width="21" height="20" viewBox="0 0 21 20" fill="none" xmlns="http://www.w3.org/2000/svg">
<g clip-path="url(#clip0_616_5575)">
<path d="M17.9073 5.57837C17.7229 5.57837 17.5443 5.59776 17.3698 5.62684V11.5774C17.5443 11.6084 17.7248 11.6259 17.9073 11.6259C19.6154 11.6259 21 10.2725 21 8.60309C21 6.93368 19.6154 5.57837 17.9073 5.57837Z" fill="#223757"/>
<path d="M7.74649 9.58984H4.90576V19.9999H7.74649V9.58984Z" fill="#223757"/>
<path d="M11.0991 3.67432H5.04071C2.25751 3.67432 0 5.88082 0 8.60113C0 11.3214 2.25751 13.5279 5.04071 13.5279H11.0991L16.4592 16.5604V0.641846L11.0991 3.67238V3.67432Z" fill="#EF5F4B"/>
<path d="M17.2249 0.207402L16.4572 0.64172V16.5603L17.2249 16.9946C18.0858 17.4813 18.79 17.0838 18.79 16.1124V1.09155C18.79 0.118211 18.0838 -0.279268 17.2249 0.20934V0.207402Z" fill="#EEEEEE"/>
</g>
<defs>
<clipPath id="clip0_616_5575">
<rect width="21" height="20" fill="white"/>
</clipPath>
</defs>
</svg>
